<?xml version="1.0" encoding="utf-8"?>
<!-- Generator: Adobe Illustrator 19.0.1, SVG Export Plug-In . SVG Version: 6.00 Build 0)  -->
<svg version="1.1" id="Online_Shop" xmlns="http://www.w3.org/2000/svg" xmlns:xlink="http://www.w3.org/1999/xlink" x="0px"
	 y="0px" viewBox="363.3 214.3 413.6 413.6" style="enable-background:new 363.3 214.3 413.6 413.6;" xml:space="preserve">
<style type="text/css">
	.st0{fill:url(#SVGID_1_);}
	.st1{fill:none;stroke:#25FF26;stroke-width:30;stroke-miterlimit:10;}
	.st2{fill:#22FF10;}
</style>
<path d="M491,222.6c-1.7-2-3.8-3.5-6.2-4.6c-2.5-1.1-5.2-1.7-8.1-1.7c-3.9,0-7.4,1-10.4,2.9c-2.9,1.9-5.2,4.4-6.8,7.6
	c-1.5,3.1-2.2,6.4-2.2,9.9c0,3.8,0.8,7.3,2.5,10.4c1.7,3.1,4,5.5,7.1,7.3c2.9,1.7,6.2,2.5,9.8,2.5c3.9,0,7.4-0.9,10.3-2.8
	c1.5-0.9,2.8-2,4-3.3c1.2-1.3,2.1-2.7,2.9-4.2c1.5-3,2.2-6.3,2.2-10c-0.1-2.7-0.5-5.3-1.3-7.6C493.9,226.6,492.6,224.4,491,222.6z
	 M482.3,244.5c-0.7,0.8-1.5,1.4-2.3,1.7c-1.1,0.4-2.1,0.6-3.2,0.6c-2,0-3.5-0.4-4.6-1.4c-1.2-1.1-2.1-2.3-2.6-3.8
	c-0.6-1.7-0.9-3.4-0.9-5.1c0-2.3,0.4-4.3,1.2-5.9c0.7-1.4,1.6-2.5,2.8-3.2c1.2-0.7,2.6-1.1,4.1-1.1c1.1,0,2.2,0.2,3.2,0.6
	c1,0.4,1.8,0.9,2.4,1.6c0.8,0.9,1.3,1.9,1.7,3.1c0.5,1.4,0.7,3.1,0.7,4.8c0,1.9-0.3,3.5-0.8,4.9C483.6,242.7,483,243.7,482.3,244.5z
	 M539.3,221.9v29.8c0,1.4-0.5,2.7-1.4,3.7l-0.1,0.1c-1,1-2.3,1.5-3.8,1.5c-1.3,0-3.2-0.4-5-2.4l-0.1-0.2l-13.5-17.7v14.9
	c0,1.7-0.7,3.2-2.1,4.2c-2.1,1.5-5.1,1.4-7.1-0.2c-1.2-1-1.9-2.4-1.9-4.1v-29.8c0-2,0.8-3.2,1.4-3.9c0.9-1,2.3-1.6,3.8-1.6
	c2.1,0,3.9,1,5.2,2.8l13.5,17.6v-14.8c0-1.6,0.6-3.1,1.8-4.1c2.3-1.9,5.2-1.8,7.3-0.1l0.2,0.2C538.3,218.5,539.3,219.8,539.3,221.9z
	 M579.3,251.4c0,2.9-1.7,4.1-2.5,4.5c-1,0.5-1.9,0.8-2.7,0.8h-18.7c-1.3,0-2.5-0.5-3.5-1.3c-0.9-0.7-1.9-2-1.9-4.5v-29.1
	c0-1.7,0.7-3.2,1.9-4.2c1-0.8,2.3-1.3,3.7-1.3c3.2,0,5.4,2.3,5.4,5.7v24.3h12.3c1.3,0,2.5,0.3,3.6,1
	C578.4,248.2,579.3,249.7,579.3,251.4z M597.7,221.9v29.5c0,2.5-1.1,3.8-2.1,4.5c-1,0.7-2.2,1.1-3.4,1.1c-3.3,0-5.6-2.2-5.6-5.5
	v-29.6c0-3.3,2.2-5.5,5.6-5.5c1.4,0,2.6,0.5,3.6,1.3C596.7,218.4,597.7,219.7,597.7,221.9z M643.4,221.9v29.8c0,1.4-0.5,2.7-1.4,3.7
	l-0.1,0.1c-1,1-2.3,1.5-3.8,1.5c-1.3,0-3.2-0.4-5-2.4l-0.1-0.2l-13.5-17.7v14.9c0,1.7-0.7,3.2-2.1,4.2c-2.1,1.5-5.1,1.4-7.1-0.2
	c-1.2-1-1.9-2.4-1.9-4.1v-29.8c0-2,0.8-3.2,1.4-3.9c0.9-1,2.3-1.6,3.8-1.6c2.1,0,3.9,1,5.2,2.8l13.5,17.6v-14.8
	c0-1.6,0.6-3.1,1.8-4.1c2.3-1.9,5.2-1.8,7.3-0.1l0.2,0.2C642.5,218.5,643.4,219.8,643.4,221.9z M683.9,248c0.6,0.7,1.3,1.8,1.3,3.6
	c0,1.3-0.5,2.6-1.5,3.6l-0.1,0.1c-0.7,0.6-1.9,1.4-3.9,1.4h-21c-3.1,0-4.3-1.7-4.8-2.6c-0.5-0.9-0.7-1.9-0.7-2.8v-29
	c0-1.4,0.4-2.7,1.3-3.7l0.2-0.2c1-1.1,2.3-1.6,3.7-1.6H680c1.4,0,2.6,0.5,3.6,1.4l0.2,0.2c0.9,1,1.4,2.2,1.4,3.6
	c0,1.4-0.5,2.6-1.4,3.6c-0.7,0.7-1.9,1.6-3.9,1.6h-15.7v4.5h13.6c1.9,0,3.1,0.8,3.8,1.5c0.7,0.7,1.5,1.8,1.5,3.7
	c0,1.4-0.5,2.6-1.5,3.6c-0.6,0.7-1.9,1.6-3.9,1.6h-13.5v4.4H680C681.6,246.3,683,246.9,683.9,248z M518.5,605.6
	c1.3,2,1.9,4.2,1.9,6.5c0,2.3-0.6,4.6-1.8,6.7c-1.3,2.2-3.2,3.9-5.5,5.2c-2.4,1.2-5.2,1.9-8.3,1.9c-2.2,0-4.3-0.3-6.3-0.8
	c-2-0.5-3.6-1.2-4.8-2c-1.5-1-2.4-2.5-2.5-4.4l0-0.2c0-1.3,0.5-2.6,1.4-3.6l0.1-0.1c1-1,2.3-1.6,3.8-1.6c0.7,0,1.5,0.2,2.5,0.6
	l0.5,0.2c0.9,0.6,1.9,1,2.9,1.3c1,0.3,2,0.4,3,0.4c0.6,0,1.2-0.2,1.9-0.5c0.5-0.3,1-0.7,1.3-1.3c0.3-0.4,0.4-0.9,0.4-1.4
	c0-0.4-0.1-0.6-0.3-0.8c-0.4-0.5-1-0.9-1.6-1.2c-0.6-0.3-1.7-0.7-3.8-1.4c-0.8-0.2-2-0.6-3.3-1.1l-0.2-0.1c-1.6-0.7-2.9-1.4-3.9-2.1
	c-1.2-0.8-2.3-2-3.1-3.4c-0.8-1.4-1.2-3.1-1.3-5c0-2.6,0.8-4.8,2.3-6.7c1.5-1.9,3.3-3.2,5.4-4.1c2.1-0.9,4.3-1.4,6.5-1.4
	c3.6,0,6.7,0.7,9.1,2.2l0,0c2.6,1.7,3,3.8,3,5c0,1.4-0.6,2.7-1.7,3.6c-0.7,0.6-1.8,1.3-3.5,1.4l-0.4,0l-0.4-0.1
	c-0.8-0.2-1.8-0.5-3.2-1.1c-1-0.4-1.7-0.7-2.2-0.9l-0.2-0.1c0,0-0.2-0.1-0.8-0.1c-1.3,0-1.8,0.4-1.9,0.5c-0.2,0.2-0.5,0.5-0.7,1.1
	c0.2,0.5,1.2,1.1,2.2,1.4c0.3,0.1,1.1,0.4,2.8,0.9c1.1,0.3,2.3,0.8,3.8,1.3c1.4,0.5,2.6,1.1,3.7,1.8c1.2,0.8,2.2,1.8,3.1,2.9
	L518.5,605.6z M565.3,591v29.4c0,2.1-1,3.4-1.8,4.2c-1,0.9-2.4,1.4-3.8,1.4c-1.4,0-2.7-0.5-3.7-1.4c-0.8-0.7-1.7-2-1.7-4.1v-9.7
	h-12.8v9.7c0,1.7-0.6,3.2-1.8,4.2c-1,0.9-2.3,1.4-3.7,1.4c-1.5,0-2.8-0.5-3.8-1.5c-0.8-0.7-1.7-2-1.7-4.1V591c0-2.1,0.9-3.4,1.7-4.1
	c1-1,2.4-1.6,3.8-1.6c1.4,0,2.7,0.5,3.8,1.5c0.8,0.7,1.7,2,1.7,4.2v9.6h12.8V591c0-2.2,1-3.6,1.8-4.3c1.3-1.2,2.7-1.5,3.7-1.5
	c1.4,0,2.7,0.5,3.8,1.4C564.4,587.5,565.3,588.8,565.3,591z M607.5,591.5c-1.7-2-3.8-3.5-6.2-4.6c-2.5-1.1-5.2-1.7-8.1-1.7
	c-3.9,0-7.4,1-10.4,2.9c-2.9,1.9-5.2,4.4-6.8,7.6c-1.5,3.1-2.2,6.4-2.2,9.9c0,3.8,0.8,7.3,2.5,10.4c1.7,3.1,4,5.5,7.1,7.3
	c2.9,1.7,6.2,2.5,9.8,2.5c3.9,0,7.4-0.9,10.3-2.8c1.5-0.9,2.8-2,4-3.3c1.2-1.3,2.1-2.7,2.9-4.2c1.5-3,2.2-6.3,2.2-10
	c-0.1-2.7-0.5-5.3-1.3-7.6C610.3,595.6,609.1,593.4,607.5,591.5z M598.7,613.5c-0.7,0.8-1.5,1.4-2.3,1.7c-1.1,0.4-2.1,0.6-3.2,0.6
	c-2,0-3.5-0.4-4.6-1.4c-1.2-1.1-2.1-2.3-2.6-3.8c-0.6-1.7-0.9-3.4-0.9-5.1c0-2.3,0.4-4.3,1.2-5.9c0.7-1.4,1.6-2.5,2.8-3.2
	c1.2-0.7,2.6-1.1,4.1-1.1c1.1,0,2.2,0.2,3.2,0.6c1,0.4,1.8,0.9,2.4,1.6c0.8,0.9,1.3,1.9,1.7,3.1c0.5,1.4,0.7,3.1,0.7,4.8
	c0,1.9-0.3,3.5-0.8,4.9C600,611.6,599.5,612.6,598.7,613.5z M650.4,593.5l-0.1-0.1c-0.9-1.7-2.1-3.2-3.5-4.3c-1.4-1.1-3-2-4.8-2.6
	c-1.7-0.6-3.6-0.8-5.6-0.8h-9.1c-1.2,0-2.4,0.4-3.4,1.1c-0.8,0.6-2.1,1.9-2.1,4.3v29.4c0,1.6,0.6,3,1.8,4l0.2,0.2
	c1,0.8,2.3,1.2,3.5,1.2c1.3,0,2.5-0.4,3.6-1.2c1.3-0.9,2-2.4,2-4.1v-7.5h4.2c2,0,3.8-0.4,5.6-1.1c1.8-0.7,3.4-1.6,4.7-2.9
	c1.3-1.2,2.3-2.7,3.1-4.4c0.7-1.7,1.1-3.5,1.1-5.4C651.6,597.1,651.2,595.1,650.4,593.5z M632.9,595.7h3.4c1.4,0,2.5,0.3,3.4,1.1
	c0.4,0.4,0.9,1,0.9,2.4c0,1.1-0.3,1.9-1.1,2.7c-0.8,0.8-1.9,1.1-3.4,1.1h-3.2V595.7z M621.6,526.7c-0.1,0-0.3,0-0.4,0v0H621.6z
	 M519,526.7c-0.1,0-0.3,0-0.4,0L519,526.7L519,526.7z M502.5,397.7c0-6.2,4.1-11.5,9.7-13.4v-50.7c0-31.9,26-57.9,57.9-57.9
	s57.9,26,57.9,57.9v50.7c5.6,1.8,9.7,7.1,9.7,13.4c0,7.8-6.3,14.1-14.1,14.1s-14.1-6.3-14.1-14.1c0-6.2,4.1-11.5,9.7-13.4v-50.7
	c0-27.1-22-49.1-49.1-49.1s-49.1,22-49.1,49.1v50.7c5.6,1.8,9.7,7.1,9.7,13.4c0,7.8-6.3,14.1-14.1,14.1
	C508.8,411.8,502.5,405.5,502.5,397.7z M609.9,345.7v8.7h-79.6v-8.7H609.9z M686.6,366.2v140.1c0,11.3-9.2,20.4-20.4,20.4H622
	c-0.1,0-0.2,0-0.2,0s-0.2,0-0.2,0h-0.4v0c-8.2,0.4-14.7,7.1-14.7,15.3s6.5,14.9,14.7,15.3v0.1h16.7c2.4,0,4.4,2,4.4,4.4
	s-2,4.4-4.4,4.4H502.4c-2.4,0-4.4-2-4.4-4.4s2-4.4,4.4-4.4H519v-0.1c8.2-0.4,14.7-7.1,14.7-15.3s-6.5-14.9-14.7-15.3v0h-0.4
	c-0.1,0-0.2,0-0.2,0s-0.2,0-0.2,0h-44.2c-11.3,0-20.4-9.2-20.4-20.4V366.2c0-11.3,9.2-20.4,20.4-20.4h28.9v8.7h-28.9
	c-6.4,0-11.7,5.2-11.7,11.7v140.1c0,6.4,5.2,11.7,11.7,11.7h192.2c6.4,0,11.7-5.2,11.7-11.7V366.2c0-6.4-5.2-11.7-11.7-11.7h-28.9
	v-8.7h28.9C677.5,345.7,686.6,354.9,686.6,366.2z"/>
</svg>
